PathFileType	4	(X/Y/Z)	Patient4_TMGait_0pt7_01_left_26.trc.trc
DataRate	CameraRate	NumFrames	NumMarkers	Units	OrigDataRate	OrigDataStartFrame	OrigNumFrames
86.419753086420	86.419753086420	4	33	mm	86.419753086420	36	       141
Frame#	Time	Sacral			L.Shoulder			Chest			R.Shoulder			Neck			R.ASIS			L.ASIS			R.Thigh.Superior			R.Thigh.Lateral			R.Thigh.Inferior			R.Patella			L.Thigh.Superior			L.Thigh.Lateral			L.Thigh.Inferior			L.Patella			L.Shank.Superior			L.Shank.Lateral			L.Shank.Inferior			R.Shank.Superior			R.Shank.Lateral			R.Shank.Inferior			R.Heel			R.Midfoot.Superior			R.Midfoot.Lateral			R.Toe			L.Heel			L.Midfoot.Lateral			L.Midfoot.Superior			L.Toe			L.Elbow			L.Wrist			R.Elbow			R.Wrist			
		X1	Y1	Z1	X2	Y2	Z2	X3	Y3	Z3	X4	Y4	Z4	X5	Y5	Z5	X6	Y6	Z6	X7	Y7	Z7	X8	Y8	Z8	X9	Y9	Z9	X10	Y10	Z10	X11	Y11	Z11	X12	Y12	Z12	X13	Y13	Z13	X14	Y14	Z14	X15	Y15	Z15	X16	Y16	Z16	X17	Y17	Z17	X18	Y18	Z18	X19	Y19	Z19	X20	Y20	Z20	X21	Y21	Z21	X22	Y22	Z22	X23	Y23	Z23	X24	Y24	Z24	X25	Y25	Z25	X26	Y26	Z26	X27	Y27	Z27	X28	Y28	Z28	X29	Y29	Z29	X30	Y30	Z30	X31	Y31	Z31	X32	Y32	Z32	X33	Y33	Z33	

36	30.355000000000	832.161687672964	1011.038975405334	481.491817287469	1023.014013083352	1431.766882744954	297.777377215188	1133.415640169264	1348.637551927918	448.532467818106	1070.201337888772	1429.940100213289	627.181020593674	1046.541985066734	1487.773253464612	452.014155629102	1055.943109872559	937.104971910636	595.005480862449	1039.794173463394	951.235942617864	319.793145508999	1060.024348704219	725.889849647990	581.152722672040	957.345319766826	633.649747602589	645.572281223423	1026.521241647233	562.106930224409	574.972054542903	1006.770340682980	463.235886522546	591.744076936258	1110.337689796223	767.830207657023	359.136273413928	1047.524283123890	637.966770503049	293.837889205830	1142.741147505327	573.465353452041	359.282684774179	1155.176813648784	501.768831785814	366.884972957186	1132.523469916993	427.213322567861	357.509206451515	1053.354866839953	307.467466706843	303.495430652081	1111.762543759469	198.685072788930	371.996591928586	941.391398212191	393.265587057628	598.774337141435	831.897504884716	332.359833931620	662.448175125213	835.033504335789	223.087235931718	608.518364148547	648.560174226733	108.908680775091	582.904300476286	826.460602795387	107.154918295644	621.559735610792	723.785467389165	71.148035116895	655.646923706309	922.681130679693	35.123815081930	645.122950091828	992.477915278859	39.114511581899	408.913485890115	1067.682279391450	37.063010293250	329.175669574721	1150.262366303337	97.797331980466	357.882165936983	1279.547311548472	43.366561514973	330.775151280294	873.378168766707	1116.679470013370	195.137250047539	893.213035402629	854.045048505610	184.468946437111	1147.682278651494	1093.100836298470	736.290493701574	1366.245512793609	1102.181279593479	608.720865788252	
37	30.366571428571	832.276034702179	1012.559965497660	477.912258565362	1024.173942076273	1433.587403245607	295.105495569428	1133.852680225474	1350.186672882596	446.168757888257	1069.888406938158	1431.268760809699	624.763515526629	1046.899886542972	1489.261375382490	449.496353643669	1055.635072006725	938.728965061054	591.747825411402	1040.349068060591	952.561353062070	316.744185561641	1064.032146836140	728.134093677815	578.648613638994	964.111206839981	634.054753733049	643.842328768339	1035.208883124803	563.344360445570	573.472112345958	1016.493487650639	462.653876122902	591.969606819213	1109.411835966479	767.144193274904	355.138758227598	1043.681783232092	637.881187056847	291.557306508688	1138.521350675220	572.498916589453	356.584578809804	1150.128101240603	501.087091358911	364.850251691305	1127.004594847263	426.763536105639	355.806035094824	1046.996746786878	307.357144523811	302.378422736732	1104.715002912727	198.521864548411	371.321118457011	948.415130093393	393.966016657245	598.601172216958	836.503943115172	337.243590062150	661.927490163723	836.499930771373	227.558218560627	608.937101029656	646.308067264215	121.690636515111	583.162734053916	823.523980138639	110.094853645067	622.022540738793	719.139373294237	79.429382536231	655.705746367396	914.817106644482	34.071688167599	645.093879385049	984.453641926695	39.196268252413	408.825612249870	1059.624750664513	37.032908559184	329.092489104925	1142.280446708870	97.764457876676	357.683070009245	1271.544727995285	43.045215633104	330.589715897539	876.387233302503	1117.910520873595	190.901632160901	905.885192379845	856.222636050605	179.672239373142	1135.269611352799	1091.503608806548	735.592326303028	1356.373300614645	1085.227563701845	612.227272055938	
38	30.378142857143	832.183164434979	1013.902610253407	474.408911376766	1025.390907288768	1435.216168291135	292.436648861865	1134.168003983416	1351.558989600864	443.933766510639	1069.252229639811	1432.443270306329	622.406690435388	1047.066582736433	1490.602474245787	446.974738302517	1055.157946329980	940.212706295908	588.676645915026	1040.784893249550	953.645837804195	313.918097590012	1068.498102658054	730.520997130619	576.222822593534	971.699379562495	634.423589183909	642.207839465338	1044.727756186152	564.741520950691	571.939054789099	1027.133411452882	462.302712114981	591.936382837988	1108.180540230786	766.183985900269	351.200943714173	1039.612345854933	637.760049506263	289.226876948153	1134.017414798725	571.489485170181	353.869626431819	1144.762361645674	500.350606427579	362.654984160267	1121.223748438899	426.259500777542	353.961602385616	1040.387394932016	307.154853707250	301.175815003515	1097.531102639534	198.307449461285	370.558073976815	956.439305712373	394.821501253851	598.259995260652	842.249747206866	342.456503458804	661.287201115145	838.896634037559	232.515465367223	609.199119342526	645.282247451116	135.636633703854	583.228624014946	821.252520427562	113.747011976585	622.293410517942	715.336650867845	88.907136965932	655.635512284497	907.232747451999	32.987114670896	645.154730986536	976.354466304125	39.267026730766	408.736992622683	1051.494531545394	36.956460529281	329.007669063568	1134.243794347488	97.649551771078	357.477848414514	1263.478767655334	42.645671399860	330.435665482629	879.299149580384	1119.118097579566	186.423068551899	919.093562060055	858.826549221880	174.902495492835	1122.474023236058	1090.208702382023	734.639917315386	1345.457329307984	1067.125816298162	616.392759325419	
39	30.389714285714	831.865653303765	1015.030817931135	471.011392864601	1026.629041234270	1436.602534141726	289.803737997380	1134.337200580791	1352.702399857667	441.864734251039	1068.287377423025	1433.424704581277	620.139923012212	1047.042883699746	1491.766631214737	444.481777640142	1054.509159574781	941.509631799427	585.821192007236	1041.067038609133	954.493990190830	311.306990952270	1073.298480148458	733.066165627540	573.874966562391	979.959020828319	634.839457388990	640.666353283788	1054.903934549266	566.375687258886	570.386948502854	1038.558043416484	462.282231093841	591.628279757135	1106.677112801779	765.063661741779	347.417446854587	1035.465378866816	637.664047032413	286.859818155331	1129.346837483712	570.492344471934	351.169824040584	1139.207371241628	499.591073083669	360.333136466388	1115.300221198515	425.717337590636	352.011764502409	1033.642027235111	306.896555155943	299.890500372889	1090.267010871862	198.053933327021	369.720433937423	965.369020936166	395.887294727305	597.748571088029	849.061220633575	347.981436343491	660.500696629744	842.225585475613	237.944887965316	609.279136286340	645.587729559650	150.499839971909	583.051523066540	819.762107390169	118.163705902823	622.359393407981	712.545302821839	99.460072515788	655.401308130473	900.158667494940	32.015001757070	645.312882755308	968.208521000536	39.333679634632	408.633519356490	1043.322355876926	36.854703706227	328.908858657241	1126.172149332060	97.481262045112	357.260846880140	1255.372729163394	42.215010727735	330.302127833117	882.230381287900	1120.187346961586	181.684900525415	932.791573014250	861.790710777302	170.173364419388	1109.438501117295	1089.161584485472	733.428218294032	1333.361020789712	1048.096678574154	621.189356583772	
